<svg width="100" height="150" viewBox="0 0 151 224" fill="none" xmlns="http://www.w3.org/2000/svg">
    <path d="M46.5649 16.2254C45.2963 15.5567 43.8791 15.2279 42.4472 15.2702C41.0154 15.3125 39.62 15.7246 38.3926 16.4671C37.1652 17.2095 36.1469 18.2573 35.4389 19.5093C34.7309 20.7613 34.3544 22.1756 34.3477 23.6158V204.176C34.3544 205.616 34.7309 207.031 35.4389 208.283C36.1469 209.535 37.1652 210.582 38.3926 211.325C39.62 212.067 41.0154 212.479 42.4472 212.522C43.8791 212.564 45.2963 212.235 46.5649 211.566L60.5719 204.276C61.9221 203.552 63.0535 202.473 63.8408 201.153C64.6281 199.834 65.0437 198.325 65.0437 196.786V31.0059C65.0546 29.4651 64.639 27.9509 63.8505 26.6297C63.0621 25.3084 61.9293 24.2312 60.5719 23.5158L46.5649 16.2254Z" fill="#8572FF"/>
    <path d="M12.5886 36.9973C11.3124 36.3247 9.88678 35.9956 8.44665 36.0425C7.00652 36.0893 5.60283 36.5104 4.3726 37.2646C3.14238 38.0188 2.12469 39.0804 1.42377 40.3462C0.722849 41.6119 0.360957 43.0387 0.37131 44.4874V184.901C0.378081 186.341 0.754603 187.756 1.46257 189.008C2.17054 190.26 3.18882 191.307 4.41625 192.049C5.64369 192.792 7.03906 193.204 8.4709 193.247C9.90273 193.289 11.3199 192.96 12.5886 192.291L20.6348 188.097C21.9922 187.382 23.1298 186.304 23.9183 184.983C24.7068 183.662 25.1176 182.148 25.1066 180.607V48.6817C25.1218 47.1532 24.7083 45.6511 23.9183 44.3451C23.1284 43.039 21.9916 41.9812 20.6348 41.2916L12.5886 36.9973Z" fill="#8572FF"/>
    <path d="M147.173 44.6934L91.1498 1.75049C89.9217 0.788409 88.4455 0.195639 86.8963 0.04072C85.3471 -0.114199 83.788 0.174854 82.3955 0.87488C81.0029 1.57491 79.8358 2.6573 79.0295 3.99635C78.2232 5.3354 77.8126 6.8764 77.8412 8.44144V215.667C77.8504 217.216 78.2833 218.733 79.0974 220.049C79.9115 221.364 81.0704 222.427 82.4488 223.12C83.8272 223.813 85.3707 224.109 86.906 223.974C88.4413 223.84 89.9115 223.28 91.1498 222.358L147.173 179.415C148.195 178.629 149.019 177.616 149.588 176.456C150.157 175.295 150.45 174.018 150.447 172.724V51.3847C150.458 50.0894 150.172 48.8092 149.603 47.6472C149.033 46.4853 148.201 45.4736 147.173 44.6934ZM130.285 122.291C124.203 129.543 120.956 138.772 121.147 148.256L118.266 180.114L115.483 148.256C115.594 138.785 112.356 129.583 106.345 122.291L95.122 114.201L106.345 106.112C112.379 98.7933 115.618 89.5515 115.483 80.0466L118.266 48.2888L121.147 80.0466C120.931 89.5646 124.18 98.834 130.285 106.112L141.508 114.201L130.285 122.291Z" fill="#8572FF"/>
</svg>
